# xmcd CD database file
#
# Track frame offsets:
#	150
#	12960
#	24225
#	33695
#	44147
#	55635
#	66465
#	79500
#	89045
#	99900
#	109800
#	122520
#	132117
#	142682
#	153800
#	164445
#	179715
#	191850
#
# Disc length: 2683 seconds
#
# Revision: 2
# Processed by: cddbd v1.5.2PL0 Copyright (c) Steve Scherf et al.
# Submitted via: CDex 1.70beta2
#
DISCID=f10a7912
DTITLE=Various Artist - Country Greats Vol.2
DYEAR=1900
DGENRE=
TTITLE0=Charley Pride - Crystal Chandeliers
TTITLE1=Patsy Cline - The Heart You Break May Be Your Own
TTITLE2=Patsy Cline - I`m Movin On
TTITLE3=Patsy Cline - Lovesick Blues
TTITLE4=Patsy Cline - Walkin After Midnight
TTITLE5=Donna Fargo - All That`s Keepin Me Alive
TTITLE6=Donna Fargo - Daddy
TTITLE7=Donna Fargo - Sticks And Stones
TTITLE8=Donna Fargo - Wishful Thinking
TTITLE9=Faron Young - Hello Walls
TTITLE10=Lee Hazelwood - These Boots Are Made For Walkin
TTITLE11=Ned Miller - From A Jack To A King
TTITLE12=Don Gibson - Oh, Lonesome Me
TTITLE13=Hank Locklin - Let Me Be The One
TTITLE14=Billie Jo Spears - What Ive Got In Mind
TTITLE15=Billie Jo Spears - Blanket On The Ground
TTITLE16=Billie Jo Spears - Misty Blue
TTITLE17=Charley Pride - Kiss An Angel Good Morning
EXTD=
EXTT0=
EXTT1=
EXTT2=
EXTT3=
EXTT4=
EXTT5=
EXTT6=
EXTT7=
EXTT8=
EXTT9=
EXTT10=
EXTT11=
EXTT12=
EXTT13=
EXTT14=
EXTT15=
EXTT16=
EXTT17=
PLAYORDER=
